# xmcd
#
# Track frame offsets: 
#        150
#        26953
#        41071
#        58590
#        75583
#        88922
#        104640
#        126154
#        143696
#        156356
#        175899
#        195236
#
# Disc length: 3025 seconds
#
# Revision: 0
# Processed by: cddbd v1.5.1PL0 Copyright (c) Steve Scherf et al.
# Submitted via: ExactAudioCopy v0.90b3
#
DISCID=a40bcf0c
DTITLE=Steve Bassett and the Mystic Soul Bubbas - Party in a Box
DYEAR=2000
DGENRE=R&B
TTITLE0=The Oohh Aahh Bird
TTITLE1=Clean Up Your Own House People
TTITLE2=Soul Survivor
TTITLE3=Have a Good Vacation Baby
TTITLE4=I'll Miss Show Business
TTITLE5=All I Can Do Is Love You Honey
TTITLE6=I'm Gonna Eat Ya'll
TTITLE7=Playin' My Thang
TTITLE8=Welcome Home
TTITLE9=I Slipped a Little
TTITLE10=Use the Blues
TTITLE11=Fee - Fi - Fo - Fum
EXTD=
EXTT0=
EXTT1=
EXTT2=
EXTT3=
EXTT4=
EXTT5=
EXTT6=
EXTT7=
EXTT8=
EXTT9=
EXTT10=
EXTT11=
PLAYORDER=
